<svg width="24" height="17" viewBox="0 0 24 17" fill="none" xmlns="http://www.w3.org/2000/svg">
<g clip-path="url(#clip0_1_91)">
<path d="M11.3497 0.53125H12.6409C12.7177 0.548029 12.7944 0.574396 12.8736 0.57919C13.8072 0.6511 14.712 0.862037 15.5855 1.18324C18.6838 2.329 21.2133 4.26818 23.2989 6.79941C24.2468 7.94998 24.2252 9.11971 23.2845 10.2823C21.9909 11.8835 20.455 13.2138 18.7246 14.3212C17.2991 15.2321 15.7799 15.9344 14.1168 16.2892C13.6296 16.3922 13.1328 16.4521 12.6409 16.5312H11.3497C11.2729 16.5145 11.1937 16.4881 11.1145 16.4833C10.3105 16.4162 9.52337 16.2508 8.7602 15.9919C5.46992 14.8773 2.82762 12.8518 0.636497 10.2008C0.28371 9.7741 0.0557182 9.27792 0.00771999 8.71702C-0.0570776 7.91402 0.293309 7.26204 0.785291 6.66758C2.10284 5.07837 3.65079 3.74563 5.40032 2.6502C6.85707 1.73694 8.40741 1.04421 10.1065 0.720613C10.5193 0.641512 10.9345 0.593572 11.3497 0.53125ZM6.99386 8.53245C6.99386 11.2722 9.23778 13.5206 11.9809 13.5254C14.7312 13.5326 16.9943 11.2746 16.9943 8.52766C16.9943 5.78788 14.7456 3.54189 12.0025 3.53709C9.24258 3.5323 6.99386 5.77589 6.99386 8.53245ZM12.936 5.70398C11.9401 6.53574 11.7217 7.42503 12.3073 8.27117C12.8976 9.12451 13.7856 9.22279 14.9736 8.5684C15.096 9.58953 14.2368 10.8647 13.1184 11.3154C11.8561 11.8235 10.3969 11.4136 9.59057 10.3278C8.7698 9.22279 8.789 7.72466 9.63857 6.66998C10.4449 5.66803 11.8921 5.24376 12.936 5.70398Z" fill="white"/>
</g>
<defs>
<clipPath id="clip0_1_91">
<rect width="24" height="16" fill="white" transform="translate(0 0.53125)"/>
</clipPath>
</defs>
</svg>
