<svg width="24" height="25" viewBox="0 0 24 25" fill="none" xmlns="http://www.w3.org/2000/svg">
<path d="M13.1613 1.5625H1.54839C0.693237 1.5625 0 2.26206 0 3.125V21.875C0 22.7379 0.693237 23.4375 1.54839 23.4375H13.1613C14.0164 23.4375 14.7097 22.7379 14.7097 21.875V3.125C14.7097 2.26206 14.0164 1.5625 13.1613 1.5625Z" fill="white"/>
<path d="M22.4516 1.5625H18.5806C17.7255 1.5625 17.0323 2.26206 17.0323 3.125V21.875C17.0323 22.7379 17.7255 23.4375 18.5806 23.4375H22.4516C23.3068 23.4375 24 22.7379 24 21.875V3.125C24 2.26206 23.3068 1.5625 22.4516 1.5625Z" fill="white"/>
</svg>
