<svg width="24" height="26" viewBox="0 0 24 26" fill="none" xmlns="http://www.w3.org/2000/svg">
<g clip-path="url(#clip0_1_120)">
<path d="M9.02311 24.5856V10.2838L3.78428 15.5954C3.4227 15.962 2.83513 15.962 2.47355 15.5954L0.271186 13.3624C-0.0903955 12.9958 -0.0903955 12.4001 0.271186 12.0335L11.3446 0.806204C11.7062 0.439599 12.2938 0.439599 12.6554 0.806204L23.7288 12.0335C24.0904 12.4001 24.0904 12.9958 23.7288 13.3624L21.5264 15.5954C21.1649 15.962 20.5773 15.962 20.2157 15.5954L14.5907 9.89636V24.5897C14.5907 25.1105 14.1757 25.5312 13.662 25.5312H9.94761C9.43811 25.5271 9.02311 25.1022 9.02311 24.5856Z" fill="white"/>
</g>
<defs>
<clipPath id="clip0_1_120">
<rect width="24" height="25" fill="white" transform="translate(0 0.53125)"/>
</clipPath>
</defs>
</svg>
