<svg width="64" height="64" viewBox="0 0 64 64" fill="none" xmlns="http://www.w3.org/2000/svg">
    <path fill-rule="evenodd" clip-rule="evenodd" d="M18.1591 0H45.7439C52.0586 0 54.3485 0.658133 56.6564 1.8944C58.9644 3.13173 60.7771 4.94613 62.0115 7.2576C63.2459 9.56907 63.903 11.8624 63.903 18.1867V45.8133C63.903 52.1376 63.2459 54.4299 62.0115 56.7424C60.7771 59.0539 58.9644 60.8683 56.6564 62.1056C54.3485 63.3419 52.0586 64 45.7439 64H18.1591C11.8444 64 9.55457 63.3419 7.24661 62.1056C4.93864 60.8683 3.12699 59.0539 1.8926 56.7424C0.657136 54.4299 0 52.1376 0 45.8133V18.1867C0 11.8624 0.657136 9.56907 1.8926 7.2576C3.12699 4.94613 4.93864 3.13173 7.24661 1.8944C9.55457 0.658133 11.8444 0 18.1591 0Z" fill="url(#paint0_linear_0_1)"/>
    <path opacity="0.9" fill-rule="evenodd" clip-rule="evenodd" d="M24.356 17.0667V17.4133L24.0013 17.7675C22.2504 19.5595 20.9042 21.6789 19.9616 24.1269C18.9562 26.7381 18.4535 29.4293 18.4535 32.2005C18.4535 34.9003 18.9296 37.5061 19.8828 40.0203C20.836 42.5333 22.1961 44.7136 23.963 46.56V46.9333H20.263L19.9499 46.6144C18.4034 44.9963 17.1914 42.9696 16.3149 40.5397C15.3787 37.9456 14.9111 35.1659 14.9111 32.2005C14.9111 29.1627 15.4011 26.3072 16.3798 23.6341C17.3597 20.9611 18.7858 18.7723 20.6571 17.0667H24.356ZM43.2468 17.0667L43.5929 17.392C45.2949 19.0475 46.6049 21.1285 47.523 23.6341C48.5028 26.3072 48.9928 29.1627 48.9928 32.2005C48.9928 35.1659 48.5241 37.9456 47.589 40.5397C46.6528 43.1328 45.3364 45.264 43.6398 46.9333H39.9409V46.56L40.2881 46.1867C41.8867 44.4213 43.1307 42.3659 44.02 40.0203C44.9743 37.5061 45.4504 34.9003 45.4504 32.2005C45.4504 29.4293 44.9477 26.7381 43.9423 24.1269C42.9358 21.5157 41.4714 19.2779 39.5479 17.4133V17.0667H43.2468ZM28.0294 23.088V30.7339H35.8735V23.088H39.5479V41.6843H35.8735V33.7717H28.0294V41.6843H24.356V23.088H28.0294Z" fill="white"/>
    <defs>
        <linearGradient id="paint0_linear_0_1" x1="-1.56451" y1="-2.41778" x2="63.904" y2="62.0564" gradientUnits="userSpaceOnUse">
            <stop stop-color="#D140F8"/>
            <stop offset="0.365081" stop-color="#788CE9"/>
            <stop offset="0.683665" stop-color="#37C2DE"/>
            <stop offset="1" stop-color="#1ECCAE"/>
        </linearGradient>
    </defs>
</svg>
